<svg width="60" height="59" viewBox="0 0 60 59" fill="none" xmlns="http://www.w3.org/2000/svg">
<g filter="url(#filter0_d_12_5)">
<path d="M28.6666 48.3333H12.6666C11.9594 48.3333 11.2811 48.0524 10.781 47.5523C10.2809 47.0522 9.99996 46.3739 9.99996 45.6667V8.33333C9.99996 7.62608 10.2809 6.94781 10.781 6.44771C11.2811 5.94761 11.9594 5.66666 12.6666 5.66666H26V13.6667C26 15.7884 26.8428 17.8232 28.3431 19.3235C29.8434 20.8238 31.8782 21.6667 34 21.6667H42V35C42 35.7072 42.2809 36.3855 42.781 36.8856C43.2811 37.3857 43.9594 37.6667 44.6666 37.6667C45.3739 37.6667 46.0522 37.3857 46.5522 36.8856C47.0523 36.3855 47.3333 35.7072 47.3333 35V19C47.3333 19 47.3333 19 47.3333 18.84C47.3055 18.595 47.2519 18.3537 47.1733 18.12V17.88C47.0451 17.6058 46.8741 17.3538 46.6666 17.1333L30.6666 1.13333C30.4462 0.925905 30.1941 0.754878 29.92 0.626661C29.8317 0.61122 29.7415 0.61122 29.6533 0.626661C29.394 0.488003 29.1153 0.38912 28.8266 0.333328H12.6666C10.5449 0.333328 8.51006 1.17618 7.00977 2.67647C5.50948 4.17677 4.66663 6.2116 4.66663 8.33333V45.6667C4.66663 47.7884 5.50948 49.8232 7.00977 51.3235C8.51006 52.8238 10.5449 53.6667 12.6666 53.6667H28.6666C29.3739 53.6667 30.0521 53.3857 30.5522 52.8856C31.0523 52.3855 31.3333 51.7072 31.3333 51C31.3333 50.2928 31.0523 49.6145 30.5522 49.1144C30.0521 48.6143 29.3739 48.3333 28.6666 48.3333ZM31.3333 9.42666L38.24 16.3333H34C33.2927 16.3333 32.6144 16.0524 32.1143 15.5523C31.6142 15.0522 31.3333 14.3739 31.3333 13.6667V9.42666ZM18 32.3333H34C34.7072 32.3333 35.3855 32.0524 35.8856 31.5523C36.3857 31.0522 36.6666 30.3739 36.6666 29.6667C36.6666 28.9594 36.3857 28.2811 35.8856 27.781C35.3855 27.2809 34.7072 27 34 27H18C17.2927 27 16.6144 27.2809 16.1143 27.781C15.6142 28.2811 15.3333 28.9594 15.3333 29.6667C15.3333 30.3739 15.6142 31.0522 16.1143 31.5523C16.6144 32.0524 17.2927 32.3333 18 32.3333ZM28.6666 37.6667H18C17.2927 37.6667 16.6144 37.9476 16.1143 38.4477C15.6142 38.9478 15.3333 39.6261 15.3333 40.3333C15.3333 41.0406 15.6142 41.7189 16.1143 42.2189C16.6144 42.719 17.2927 43 18 43H28.6666C29.3739 43 30.0521 42.719 30.5522 42.2189C31.0523 41.7189 31.3333 41.0406 31.3333 40.3333C31.3333 39.6261 31.0523 38.9478 30.5522 38.4477C30.0521 37.9476 29.3739 37.6667 28.6666 37.6667ZM18 21.6667H20.6666C21.3739 21.6667 22.0521 21.3857 22.5522 20.8856C23.0523 20.3855 23.3333 19.7072 23.3333 19C23.3333 18.2928 23.0523 17.6145 22.5522 17.1144C22.0521 16.6143 21.3739 16.3333 20.6666 16.3333H18C17.2927 16.3333 16.6144 16.6143 16.1143 17.1144C15.6142 17.6145 15.3333 18.2928 15.3333 19C15.3333 19.7072 15.6142 20.3855 16.1143 20.8856C16.6144 21.3857 17.2927 21.6667 18 21.6667ZM54.56 38.44C54.3121 38.1901 54.0171 37.9917 53.6922 37.8563C53.3672 37.7209 53.0187 37.6512 52.6666 37.6512C52.3146 37.6512 51.966 37.7209 51.6411 37.8563C51.3161 37.9917 51.0212 38.1901 50.7733 38.44L42 47.24L38.56 43.7733C38.3113 43.5247 38.0162 43.3275 37.6913 43.1929C37.3664 43.0583 37.0183 42.9891 36.6666 42.9891C36.315 42.9891 35.9668 43.0583 35.642 43.1929C35.3171 43.3275 35.0219 43.5247 34.7733 43.7733C34.5247 44.022 34.3274 44.3171 34.1929 44.642C34.0583 44.9669 33.989 45.315 33.989 45.6667C33.989 46.0183 34.0583 46.3665 34.1929 46.6913C34.3274 47.0162 34.5247 47.3114 34.7733 47.56L40.1066 52.8933C40.3545 53.1433 40.6495 53.3417 40.9744 53.477C41.2994 53.6124 41.6479 53.6821 42 53.6821C42.352 53.6821 42.7005 53.6124 43.0255 53.477C43.3505 53.3417 43.6454 53.1433 43.8933 52.8933L54.56 42.2267C54.8099 41.9788 55.0083 41.6838 55.1437 41.3589C55.2791 41.0339 55.3488 40.6854 55.3488 40.3333C55.3488 39.9813 55.2791 39.6327 55.1437 39.3078C55.0083 38.9828 54.8099 38.6879 54.56 38.44Z" fill="#1ECBE1"/>
</g>
<defs>
<filter id="filter0_d_12_5" x="0.666626" y="0.333328" width="58.6821" height="61.3488" filterUnits="userSpaceOnUse" color-interpolation-filters="sRGB">
<feFlood flood-opacity="0" result="BackgroundImageFix"/>
<feColorMatrix in="SourceAlpha" type="matrix" values="0 0 0 0 0 0 0 0 0 0 0 0 0 0 0 0 0 0 127 0" result="hardAlpha"/>
<feOffset dy="4"/>
<feGaussianBlur stdDeviation="2"/>
<feComposite in2="hardAlpha" operator="out"/>
<feColorMatrix type="matrix" values="0 0 0 0 0 0 0 0 0 0 0 0 0 0 0 0 0 0 0.25 0"/>
<feBlend mode="normal" in2="BackgroundImageFix" result="effect1_dropShadow_12_5"/>
<feBlend mode="normal" in="SourceGraphic" in2="effect1_dropShadow_12_5" result="shape"/>
</filter>
</defs>
</svg>
